<svg width="105" height="24" viewBox="0 0 105 24" fill="none" xmlns="http://www.w3.org/2000/svg">
<rect width="105" height="24" rx="6" fill="#F3F4F8" fill-opacity="0.7"/>
<path d="M6.625 17.63H20.625V3.63H6.625V17.63Z" fill="#333333"/>
<path d="M34.544 7.6V16H33.368V8.644H28.496V16H27.308V7.6H34.544ZM42.9695 12.856C42.9695 12.944 42.9615 13.06 42.9455 13.204H37.7855C37.8575 13.764 38.1015 14.216 38.5175 14.56C38.9415 14.896 39.4655 15.064 40.0895 15.064C40.8495 15.064 41.4615 14.808 41.9255 14.296L42.5615 15.04C42.2735 15.376 41.9135 15.632 41.4815 15.808C41.0575 15.984 40.5815 16.072 40.0535 16.072C39.3815 16.072 38.7855 15.936 38.2655 15.664C37.7455 15.384 37.3415 14.996 37.0535 14.5C36.7735 14.004 36.6335 13.444 36.6335 12.82C36.6335 12.204 36.7695 11.648 37.0415 11.152C37.3215 10.656 37.7015 10.272 38.1815 10C38.6695 9.72 39.2175 9.58 39.8255 9.58C40.4335 9.58 40.9735 9.72 41.4455 10C41.9255 10.272 42.2975 10.656 42.5615 11.152C42.8335 11.648 42.9695 12.216 42.9695 12.856ZM39.8255 10.552C39.2735 10.552 38.8095 10.72 38.4335 11.056C38.0655 11.392 37.8495 11.832 37.7855 12.376H41.8655C41.8015 11.84 41.5815 11.404 41.2055 11.068C40.8375 10.724 40.3775 10.552 39.8255 10.552ZM48.3786 9.58C48.9946 9.58 49.5466 9.716 50.0346 9.988C50.5226 10.26 50.9026 10.64 51.1746 11.128C51.4546 11.616 51.5946 12.18 51.5946 12.82C51.5946 13.46 51.4546 14.028 51.1746 14.524C50.9026 15.012 50.5226 15.392 50.0346 15.664C49.5466 15.936 48.9946 16.072 48.3786 16.072C47.9226 16.072 47.5026 15.984 47.1186 15.808C46.7426 15.632 46.4226 15.376 46.1586 15.04V18.328H45.0066V9.64H46.1106V10.648C46.3666 10.296 46.6906 10.032 47.0826 9.856C47.4746 9.672 47.9066 9.58 48.3786 9.58ZM48.2826 15.064C48.6906 15.064 49.0546 14.972 49.3746 14.788C49.7026 14.596 49.9586 14.332 50.1426 13.996C50.3346 13.652 50.4306 13.26 50.4306 12.82C50.4306 12.38 50.3346 11.992 50.1426 11.656C49.9586 11.312 49.7026 11.048 49.3746 10.864C49.0546 10.68 48.6906 10.588 48.2826 10.588C47.8826 10.588 47.5186 10.684 47.1906 10.876C46.8706 11.06 46.6146 11.32 46.4226 11.656C46.2386 11.992 46.1466 12.38 46.1466 12.82C46.1466 13.26 46.2386 13.652 46.4226 13.996C46.6066 14.332 46.8626 14.596 47.1906 14.788C47.5186 14.972 47.8826 15.064 48.2826 15.064ZM59.2663 12.856C59.2663 12.944 59.2583 13.06 59.2423 13.204H54.0823C54.1543 13.764 54.3983 14.216 54.8143 14.56C55.2383 14.896 55.7623 15.064 56.3863 15.064C57.1463 15.064 57.7583 14.808 58.2223 14.296L58.8583 15.04C58.5703 15.376 58.2103 15.632 57.7783 15.808C57.3543 15.984 56.8783 16.072 56.3503 16.072C55.6783 16.072 55.0823 15.936 54.5623 15.664C54.0423 15.384 53.6383 14.996 53.3503 14.5C53.0703 14.004 52.9303 13.444 52.9303 12.82C52.9303 12.204 53.0663 11.648 53.3383 11.152C53.6183 10.656 53.9983 10.272 54.4783 10C54.9663 9.72 55.5143 9.58 56.1223 9.58C56.7303 9.58 57.2703 9.72 57.7423 10C58.2223 10.272 58.5943 10.656 58.8583 11.152C59.1303 11.648 59.2663 12.216 59.2663 12.856ZM56.1223 10.552C55.5703 10.552 55.1063 10.72 54.7303 11.056C54.3623 11.392 54.1463 11.832 54.0823 12.376H58.1623C58.0983 11.84 57.8783 11.404 57.5023 11.068C57.1343 10.724 56.6743 10.552 56.1223 10.552ZM67.1955 9.64V16H66.0435V10.648H62.4555V16H61.3035V9.64H67.1955ZM69.6746 9.64H70.8266V14.272L74.7266 9.64H75.7706V16H74.6186V11.368L70.7306 16H69.6746V9.64ZM81.0286 16.072C80.3806 16.072 79.8006 15.932 79.2886 15.652C78.7846 15.372 78.3886 14.988 78.1006 14.5C77.8126 14.004 77.6686 13.444 77.6686 12.82C77.6686 12.196 77.8126 11.64 78.1006 11.152C78.3886 10.656 78.7846 10.272 79.2886 10C79.8006 9.72 80.3806 9.58 81.0286 9.58C81.6046 9.58 82.1166 9.696 82.5646 9.928C83.0206 10.16 83.3726 10.496 83.6206 10.936L82.7446 11.5C82.5446 11.196 82.2966 10.968 82.0006 10.816C81.7046 10.664 81.3766 10.588 81.0166 10.588C80.6006 10.588 80.2246 10.68 79.8886 10.864C79.5606 11.048 79.3006 11.312 79.1086 11.656C78.9246 11.992 78.8326 12.38 78.8326 12.82C78.8326 13.268 78.9246 13.664 79.1086 14.008C79.3006 14.344 79.5606 14.604 79.8886 14.788C80.2246 14.972 80.6006 15.064 81.0166 15.064C81.3766 15.064 81.7046 14.988 82.0006 14.836C82.2966 14.684 82.5446 14.456 82.7446 14.152L83.6206 14.704C83.3726 15.144 83.0206 15.484 82.5646 15.724C82.1166 15.956 81.6046 16.072 81.0286 16.072ZM87.8341 13.312H86.5141V16H85.3621V9.64H86.5141V12.328H87.8581L89.9221 9.64H91.1581L88.7461 12.7L91.3261 16H89.9701L87.8341 13.312ZM94.9348 9.58C95.8148 9.58 96.4868 9.796 96.9508 10.228C97.4228 10.66 97.6588 11.304 97.6588 12.16V16H96.5668V15.16C96.3748 15.456 96.0988 15.684 95.7388 15.844C95.3868 15.996 94.9668 16.072 94.4788 16.072C93.7668 16.072 93.1948 15.9 92.7628 15.556C92.3388 15.212 92.1268 14.76 92.1268 14.2C92.1268 13.64 92.3308 13.192 92.7388 12.856C93.1468 12.512 93.7948 12.34 94.6828 12.34H96.5068V12.112C96.5068 11.616 96.3628 11.236 96.0748 10.972C95.7868 10.708 95.3628 10.576 94.8028 10.576C94.4268 10.576 94.0588 10.64 93.6988 10.768C93.3388 10.888 93.0348 11.052 92.7868 11.26L92.3068 10.396C92.6348 10.132 93.0268 9.932 93.4828 9.796C93.9388 9.652 94.4228 9.58 94.9348 9.58ZM94.6708 15.184C95.1108 15.184 95.4908 15.088 95.8108 14.896C96.1308 14.696 96.3628 14.416 96.5068 14.056V13.168H94.7308C93.7548 13.168 93.2668 13.496 93.2668 14.152C93.2668 14.472 93.3908 14.724 93.6388 14.908C93.8868 15.092 94.2308 15.184 94.6708 15.184Z" fill="#333333"/>
</svg>
